<?xml version="1.0" encoding="utf-8"?>

<!DOCTYPE svg PUBLIC "-//W3C//DTD SVG 1.1//EN" "http://www.w3.org/Graphics/SVG/1.1/DTD/svg11.dtd">
<!-- Uploaded to: SVG Repo, www.svgrepo.com, Generator: SVG Repo Mixer Tools -->
<svg height="800px" width="800px" version="1.1" id="_x32_" xmlns="http://www.w3.org/2000/svg" xmlns:xlink="http://www.w3.org/1999/xlink" 
	 viewBox="0 0 512 512"  xml:space="preserve">
<style type="text/css">
	.st0{fill:#000000;}
</style>
<g>
	<polygon class="st0" points="423.337,0 423.337,122.368 363.955,75.072 363.955,0 	"/>
	<path class="st0" d="M170.943,101.954v57.505h-82.28c0.3-0.375,0.676-0.75,0.976-1.05c22.446-24.324,50.073-43.693,81.153-56.38
		C170.868,102.029,170.868,101.954,170.943,101.954z"/>
	<path class="st0" d="M423.337,159.458H197.969V93.02c18.543-5.106,37.987-7.732,58.031-7.732
		c62.385,0,119.066,25.599,160.205,66.664c2.102,2.102,4.204,4.28,6.156,6.457C422.736,158.708,423.036,159.084,423.337,159.458z"/>
	<path class="st0" d="M66.892,187.311h170.34v85.882H32.584C37.989,241.963,49.926,212.911,66.892,187.311z"/>
	<path class="st0" d="M479.416,273.194H267.711v-85.882h177.397C462.074,212.911,474.011,241.963,479.416,273.194z"/>
	<polygon class="st0" points="158.331,427.243 158.331,512 29.131,512 29.131,427.243 82.507,427.243 82.507,457.646 
		105.029,457.646 105.029,427.243 	"/>
	<path class="st0" d="M482.869,312.157v86.183h-53.376v-37.837h-22.522v37.837h-57.431c-4.654-15.766-13.288-29.954-24.624-41.29
		c-17.642-17.643-42.041-28.678-68.917-28.678c-44.143,0-81.679,29.654-93.615,69.968h-57.356v-37.837H82.507v37.837H29.131v-86.183
		c0-3.378,0.075-6.757,0.225-10.06h453.288C482.794,305.4,482.869,308.779,482.869,312.157z"/>
	<polygon class="st0" points="482.869,427.243 482.869,512 353.594,512 353.594,427.243 406.971,427.243 406.971,457.646 
		429.493,457.646 429.493,427.243 	"/>
	<path class="st0" d="M89.639,158.408h81.304v1.05h-82.28C88.963,159.084,89.339,158.708,89.639,158.408z"/>
</g>
</svg>